<mxfile host="app.diagrams.net" modified="2023-06-07T15:42:21.771Z" agent="Mozilla/5.0 (Windows NT 10.0; Win64; x64) AppleWebKit/537.36 (KHTML, like Gecko) Chrome/114.0.0.0 Safari/537.36" etag="PF4UJsuWE9V-mLZL1eDk" version="21.3.7" type="device">
  <diagram name="Page-1" id="p2hVAeBs_QG5duhE9iot">
    <mxGraphModel dx="683" dy="364" grid="1" gridSize="10" guides="1" tooltips="1" connect="1" arrows="1" fold="1" page="1" pageScale="1" pageWidth="827" pageHeight="1169" math="0" shadow="0">
      <root>
        <mxCell id="0" />
        <mxCell id="1" parent="0" />
        <mxCell id="XhGMM__lmoeZbe08o_R9-7" value="" style="shape=mxgraph.cisco.storage.cloud;sketch=0;html=1;pointerEvents=1;dashed=0;fillColor=#647687;strokeColor=#314354;strokeWidth=2;verticalLabelPosition=bottom;verticalAlign=top;align=center;outlineConnect=0;fontColor=#ffffff;" parent="1" vertex="1">
          <mxGeometry x="34" y="30" width="760" height="290.25" as="geometry" />
        </mxCell>
        <mxCell id="XhGMM__lmoeZbe08o_R9-8" style="edgeStyle=orthogonalEdgeStyle;rounded=0;orthogonalLoop=1;jettySize=auto;html=1;endArrow=none;endFill=0;startArrow=blockThin;startFill=1;" parent="1" edge="1">
          <mxGeometry relative="1" as="geometry">
            <mxPoint x="517" y="196.31034482758616" as="sourcePoint" />
            <mxPoint x="609" y="196" as="targetPoint" />
          </mxGeometry>
        </mxCell>
        <mxCell id="XhGMM__lmoeZbe08o_R9-13" style="edgeStyle=orthogonalEdgeStyle;rounded=0;orthogonalLoop=1;jettySize=auto;html=1;endArrow=none;endFill=0;" parent="1" edge="1">
          <mxGeometry relative="1" as="geometry">
            <mxPoint x="394" y="200.25" as="sourcePoint" />
            <mxPoint x="272" y="200.25" as="targetPoint" />
          </mxGeometry>
        </mxCell>
        <mxCell id="XhGMM__lmoeZbe08o_R9-1" value="" style="shape=mxgraph.cisco.computers_and_peripherals.laptop;sketch=0;html=1;pointerEvents=1;dashed=0;fillColor=#036897;strokeColor=#ffffff;strokeWidth=2;verticalLabelPosition=bottom;verticalAlign=top;align=center;outlineConnect=0;shadow=0;" parent="1" vertex="1">
          <mxGeometry x="384" y="159.75" width="110" height="81" as="geometry" />
        </mxCell>
        <mxCell id="XhGMM__lmoeZbe08o_R9-5" value="Circuit-Board" style="strokeColor=#dddddd;shadow=1;strokeWidth=1;rounded=1;absoluteArcSize=1;arcSize=2;labelPosition=center;verticalLabelPosition=middle;align=center;verticalAlign=bottom;spacingLeft=0;fontColor=#999999;fontSize=12;whiteSpace=wrap;spacingBottom=2;html=1;" parent="1" vertex="1">
          <mxGeometry x="634" y="150.5" width="70" height="99.5" as="geometry" />
        </mxCell>
        <mxCell id="XhGMM__lmoeZbe08o_R9-6" value="" style="sketch=0;dashed=0;connectable=0;html=1;fillColor=#757575;strokeColor=none;shape=mxgraph.gcp2.circuit_board;part=1;" parent="XhGMM__lmoeZbe08o_R9-5" vertex="1">
          <mxGeometry x="0.5" width="50" height="45" relative="1" as="geometry">
            <mxPoint x="-25" y="12.5" as="offset" />
          </mxGeometry>
        </mxCell>
        <mxCell id="XhGMM__lmoeZbe08o_R9-9" value="" style="html=1;strokeWidth=1;shadow=0;dashed=0;shape=mxgraph.ios7.misc.wifi;fillColor=#1ba1e2;strokeColor=#006EAF;buttonText=;strokeColor2=#222222;fontSize=8;verticalLabelPosition=bottom;verticalAlign=top;align=center;sketch=0;fontColor=#ffffff;" parent="1" vertex="1">
          <mxGeometry x="430" y="80" width="40" height="40" as="geometry" />
        </mxCell>
        <mxCell id="XhGMM__lmoeZbe08o_R9-12" value="" style="shape=mxgraph.cisco.routers.atm_router;sketch=0;html=1;pointerEvents=1;dashed=0;fillColor=#036897;strokeColor=#ffffff;strokeWidth=2;verticalLabelPosition=bottom;verticalAlign=top;align=center;outlineConnect=0;" parent="1" vertex="1">
          <mxGeometry x="184" y="173.75" width="78" height="53" as="geometry" />
        </mxCell>
        <mxCell id="XhGMM__lmoeZbe08o_R9-16" value="WiFi" style="text;html=1;strokeColor=none;fillColor=none;align=center;verticalAlign=middle;whiteSpace=wrap;rounded=0;fontStyle=1;fontSize=14;" parent="1" vertex="1">
          <mxGeometry x="420" y="50" width="60" height="30" as="geometry" />
        </mxCell>
        <mxCell id="XhGMM__lmoeZbe08o_R9-18" value="Hotspot" style="text;html=1;strokeColor=none;fillColor=none;align=center;verticalAlign=middle;whiteSpace=wrap;rounded=0;fontStyle=1;fontSize=14;" parent="1" vertex="1">
          <mxGeometry x="193" y="133.75" width="60" height="30" as="geometry" />
        </mxCell>
        <mxCell id="XhGMM__lmoeZbe08o_R9-19" value="PC" style="text;html=1;strokeColor=none;fillColor=none;align=center;verticalAlign=middle;whiteSpace=wrap;rounded=0;fontStyle=1;fontSize=14;" parent="1" vertex="1">
          <mxGeometry x="414" y="250" width="60" height="30" as="geometry" />
        </mxCell>
        <mxCell id="XhGMM__lmoeZbe08o_R9-20" value="ESP32" style="text;html=1;strokeColor=none;fillColor=none;align=center;verticalAlign=middle;whiteSpace=wrap;rounded=0;fontStyle=1;fontSize=14;" parent="1" vertex="1">
          <mxGeometry x="636" y="115.5" width="60" height="30" as="geometry" />
        </mxCell>
        <mxCell id="gNJTDKimK5IAVCIkvkkZ-1" value="&lt;span style=&quot;font-size: 11px;&quot;&gt;HTTP: POST&lt;/span&gt;" style="text;html=1;strokeColor=none;fillColor=none;align=center;verticalAlign=middle;whiteSpace=wrap;rounded=0;fontSize=11;fontStyle=1" parent="1" vertex="1">
          <mxGeometry x="503.5" y="145.5" width="121" height="30" as="geometry" />
        </mxCell>
        <mxCell id="dO0ob5pi_f1OVtudyISx-1" style="edgeStyle=orthogonalEdgeStyle;rounded=0;orthogonalLoop=1;jettySize=auto;html=1;endArrow=classic;endFill=1;startArrow=none;startFill=0;" edge="1" parent="1">
          <mxGeometry relative="1" as="geometry">
            <mxPoint x="518" y="221.31034482758616" as="sourcePoint" />
            <mxPoint x="610" y="221" as="targetPoint" />
          </mxGeometry>
        </mxCell>
        <mxCell id="dO0ob5pi_f1OVtudyISx-2" value="&lt;span style=&quot;font-size: 9px;&quot;&gt;request&lt;/span&gt;" style="text;html=1;strokeColor=none;fillColor=none;align=center;verticalAlign=middle;whiteSpace=wrap;rounded=0;fontSize=9;fontStyle=0" vertex="1" parent="1">
          <mxGeometry x="528" y="177.75" width="72" height="20.13" as="geometry" />
        </mxCell>
        <mxCell id="dO0ob5pi_f1OVtudyISx-3" value="&lt;span style=&quot;font-size: 9px;&quot;&gt;response&lt;/span&gt;" style="text;html=1;strokeColor=none;fillColor=none;align=center;verticalAlign=middle;whiteSpace=wrap;rounded=0;fontSize=9;fontStyle=0" vertex="1" parent="1">
          <mxGeometry x="528" y="202.62" width="72" height="20.13" as="geometry" />
        </mxCell>
      </root>
    </mxGraphModel>
  </diagram>
</mxfile>
